PathFileType	4	(X/Y/Z)	/Users/niels/Desktop/University/Third Semester/Perception and Action/Exam/Gymnastics Motion Tracking/Code for Gym Tracking/Analyzed Data/Webcam_Backflip/id5_3_baseline_Sports2D/id5_3_baseline_Sports2D_px_person00.trc
DataRate	CameraRate	NumFrames	NumMarkers	Units	OrigDataRate	OrigDataStartFrame	OrigNumFrames
29.8125	29.8125	10	22	m	29.8125	40	160
Frame#	Time	Hip			RHip			RKnee			RAnkle			RBigToe			RSmallToe			RHeel			LHip			LKnee			LAnkle			LBigToe			LSmallToe			LHeel			Neck			Head			Nose			RShoulder			RElbow			RWrist			LShoulder			LElbow			LWrist		
		X1	Y1	Z1	X2	Y2	Z2	X3	Y3	Z3	X4	Y4	Z4	X5	Y5	Z5	X6	Y6	Z6	X7	Y7	Z7	X8	Y8	Z8	X9	Y9	Z9	X10	Y10	Z10	X11	Y11	Z11	X12	Y12	Z12	X13	Y13	Z13	X14	Y14	Z14	X15	Y15	Z15	X16	Y16	Z16	X17	Y17	Z17	X18	Y18	Z18	X19	Y19	Z19	X20	Y20	Z20	X21	Y21	Z21	X22	Y22	Z22
40	1.341719077568134	0.9653223118206993	-0.5697842263862322	0.0	0.9664263812906368	-0.5711884839818662	0.0	1.0006896233980769	-0.673993426967659	0.0	0.97286580310486	-0.7828145948176416	0.0	0.9903689502157463	-0.8085742912694704	0.0	0.9826945099925423	-0.8107122555116782	0.0	0.9622437723478662	-0.7972159575809433	0.0	0.9645176115956616	-0.5710727267262983	0.0	0.9967110336972661	-0.6728193207221795	0.0	0.9721669250182507	-0.7796273925056674	0.0	0.9936446808717916	-0.802788040932033	0.0	0.9897409838018062	-0.8036492803777444	0.0	0.9591693514945928	-0.7906969329110296	0.0	0.9170799402808013	-0.4405174980799327	0.0	0.886833634897852	-0.3722246196880175	0.0	0.918096170121869	-0.39632167252905137	0.0	0.9166227597859758	-0.44061024517362574	0.0	0.9282651184975844	-0.37682105114229186	0.0	0.9244776946121207	-0.3174133486322853	0.0	0.9118307945062277	-0.4409408663588219	0.0	0.9320178224567551	-0.38316813656333476	0.0	0.9224858768350814	-0.32871409369858634	0.0
41	1.3752620545073373	0.9662628066439505	-0.535855055373367	0.0	0.9672620699475514	-0.5369899536187649	0.0	1.0138638660925954	-0.631181159770577	0.0	0.9842710671532383	-0.7442073435191437	0.0	1.0009979310750354	-0.7738675485217683	0.0	0.9938964930448915	-0.7753643586740597	0.0	0.9728864851875865	-0.760058666340009	0.0	0.9655845378614464	-0.5372025861041416	0.0	1.009557717796482	-0.629598284374566	0.0	0.9844208384800901	-0.7414115382067498	0.0	1.0037126673188035	-0.768997178773197	0.0	1.0011168473619214	-0.7698025388834666	0.0	0.9711729399437024	-0.7546384617563664	0.0	0.9006225609327292	-0.41453238416953525	0.0	0.861381169267263	-0.34877223426455306	0.0	0.8953524601863937	-0.3700582943415316	0.0	0.8996569015788617	-0.4144418933209205	0.0	0.9008779742083016	-0.35142294118698175	0.0	0.8878762109726306	-0.29406103103285447	0.0	0.896151654437076	-0.4156969246195918	0.0	0.9059057039611872	-0.3591452528346266	0.0	0.8872032350137973	-0.30793280252508676	0.0
42	1.4088050314465406	0.964889983811138	-0.5034683358780532	0.0	0.9656875022092537	-0.5043198153915812	0.0	1.0293895981809464	-0.5815807439550856	0.0	1.0004700974772196	-0.6975071177984589	0.0	1.0189387701244363	-0.7284571446883183	0.0	1.0125466357012591	-0.7299087192554145	0.0	0.9884545549237864	-0.7142734992416065	0.0	0.9647035967433244	-0.5046004580964765	0.0	1.0249268783207557	-0.5793111713217789	0.0	1.0014208225328576	-0.6945782989044743	0.0	1.0218185526874886	-0.7237538406719881	0.0	1.0193274361678835	-0.7245406242737832	0.0	0.9879007664797803	-0.7097785662140504	0.0	0.8834797212834109	-0.3903873915472502	0.0	0.837399771791389	-0.32868867091263543	0.0	0.8733921710448702	-0.3467731257480253	0.0	0.8822923417432232	-0.39088107990173704	0.0	0.8800589902910059	-0.335497740320128	0.0	0.8629291545702852	-0.2804938430986419	0.0	0.8799766656472351	-0.393203570417037	0.0	0.8849130454775589	-0.34290797344458945	0.0	0.862649664334188	-0.2961912283479346	0.0
43	1.442348008385744	0.961844542199336	-0.4753258887616443	0.0	0.9626018300516122	-0.47586754650046215	0.0	1.0429357237966297	-0.5272785957066055	0.0	1.0205126363929409	-0.6439181042546295	0.0	1.0430999201176376	-0.672131841402784	0.0	1.0376306559847586	-0.6743984444794006	0.0	1.0087889467938298	-0.6611605876792852	0.0	0.9620615982108925	-0.476046198038205	0.0	1.0384151324611348	-0.5243477440208876	0.0	1.0217288901750365	-0.6402486704228506	0.0	1.0461567196547719	-0.6669068478574641	0.0	1.043035595523746	-0.6675494427817442	0.0	1.0088198257332972	-0.6571117312250467	0.0	0.8672854465864422	-0.3704569248440708	0.0	0.8164537974451238	-0.3145198501630842	0.0	0.8539077182287355	-0.32836234259424124	0.0	0.866213674811649	-0.37173235412457095	0.0	0.8688979970132971	-0.32867126551774123	0.0	0.8533375004997564	-0.2746818367874562	0.0	0.8648978675866602	-0.37520361880414044	0.0	0.871723422677422	-0.33383384425355206	0.0	0.852058062209547	-0.2912384065592575	0.0
44	1.4758909853249473	0.9583767551762699	-0.45254789716229166	0.0	0.9594030344985298	-0.45267822681571934	0.0	1.0499743696064305	-0.4710128755435023	0.0	1.0420347760386661	-0.5847704145302196	0.0	1.069952989538544	-0.6055674547992324	0.0	1.0657251036860529	-0.6094763740737229	0.0	1.03222283253808	-0.6021706309529574	0.0	0.958569084761008	-0.45280862403515776	0.0	1.0452390883247666	-0.468038801768711	0.0	1.0425824981788872	-0.579918555811033	0.0	1.0722938590817397	-0.5995339872011776	0.0	1.0683252560515828	-0.5998121420419359	0.0	1.0321178275113976	-0.5980453309105046	0.0	0.8534795293935538	-0.35652264763616376	0.0	0.7993824194464257	-0.3080960007443329	0.0	0.8377599189293802	-0.3161658770889694	0.0	0.8530140797281961	-0.3579479050864545	0.0	0.8681911622173715	-0.3285252572704457	0.0	0.8591825282885595	-0.2737616902169004	0.0	0.8524260162839046	-0.362850755027792	0.0	0.8672012383748569	-0.3305649894065085	0.0	0.8555024597586356	-0.29059721369631336	0.0
45	1.5094339622641506	0.9559494906360649	-0.4346621185397565	0.0	0.9576084787785173	-0.43416534978983257	0.0	1.0472101745208504	-0.41641288367565293	0.0	1.061227038387963	-0.521612402947563	0.0	1.0935359294262794	-0.5306928865324083	0.0	1.09095649396429	-0.536678262201803	0.0	1.0550802509490407	-0.5387299045521557	0.0	0.9554840722974056	-0.4345809253667379	0.0	1.041859222994848	-0.4146731677321084	0.0	1.0601906849224183	-0.5155402830075303	0.0	1.0940211668375228	-0.5242528481435177	0.0	1.0893187489728822	-0.5239248005826455	0.0	1.0543422582638697	-0.5342207969323925	0.0	0.8430173440673883	-0.3496268018332804	0.0	0.7865086226814365	-0.3104417300184567	0.0	0.8249661090027682	-0.3112128396007808	0.0	0.8439025606273501	-0.349832361013935	0.0	0.8759991867749342	-0.33146377485237927	0.0	0.8766157731264704	-0.2749183267698104	0.0	0.8435346020649114	-0.35692742615423767	0.0	0.8699350626582496	-0.3317951846298076	0.0	0.8697031929584003	-0.2928013301170262	0.0
46	1.542976939203354	0.9557447314895041	-0.42007152295520817	0.0	0.9583078440122095	-0.41870635142524143	0.0	1.0335413803965137	-0.367680155627536	0.0	1.0735267224224685	-0.456598287816921	0.0	1.1068667851825549	-0.45123825833727665	0.0	1.1063742094423243	-0.45904637130737025	0.0	1.0722393943419863	-0.4725625430422308	0.0	0.9538772838659587	-0.41990344900124765	0.0	1.0272122650951883	-0.36867589486058905	0.0	1.0704767981103946	-0.4498436724252216	0.0	1.1052449387017709	-0.4455401655928177	0.0	1.099930187623315	-0.44441855282846165	0.0	1.070886112243908	-0.4677113357390494	0.0	0.8365268993008458	-0.35013503448685573	0.0	0.7782451657018151	-0.3219988556415298	0.0	0.8153791155737701	-0.31437534129471084	0.0	0.8396168237263155	-0.3474916710676302	0.0	0.8883949298559601	-0.3342203817014091	0.0	0.8989849508758632	-0.27614989146466773	0.0	0.8387166975560082	-0.35778957132049705	0.0	0.8767121999687544	-0.3365194276127291	0.0	0.8889369856004818	-0.2972540810327151	0.0
47	1.5765199161425574	0.9581536692717487	-0.4067179566604259	0.0	0.9616353722953568	-0.40439828734500066	0.0	1.0102406169128373	-0.3287120749837762	0.0	1.0748035467016681	-0.3929856599507422	0.0	1.1041341211512143	-0.3730350874091071	0.0	1.106041354733253	-0.3816971691518188	0.0	1.0785226300943334	-0.4064051695034388	0.0	0.9543055261058562	-0.40674763654941537	0.0	1.0029309264849715	-0.3333888931218861	0.0	1.0700769835236448	-0.38659088782527	0.0	1.1018664604169606	-0.36974649607647325	0.0	1.096031570216222	-0.3677629909170643	0.0	1.0770724847026742	-0.4015066565103341	0.0	0.8346030852955456	-0.35773293199223793	0.0	0.775588193465014	-0.3425146582864873	0.0	0.8094374283830278	-0.3260945597168316	0.0	0.8405076201841011	-0.3509528623129086	0.0	0.9011337297706232	-0.3349991894595689	0.0	0.9189856341779671	-0.27674121157343157	0.0	0.8384567626471099	-0.3650074343276608	0.0	0.8842214023495624	-0.34395325155165773	0.0	0.9071606490850437	-0.30318644197472394	0.0
48	1.6100628930817606	0.962491014593971	-0.392801348702106	0.0	0.9665462159108228	-0.3896560594491762	0.0	0.9803172822927543	-0.30217266500586015	0.0	1.0624832498395311	-0.3351130363349231	0.0	1.0825241542704465	-0.3033212417758174	0.0	1.0868071372264374	-0.3114381954749248	0.0	1.0702204434294622	-0.34443709352266394	0.0	0.9566837361201487	-0.3932500529000858	0.0	0.9726207886690084	-0.3104312293444119	0.0	1.0572523678931947	-0.33032635399941107	0.0	1.0827157920411632	-0.3042525581511632	0.0	1.0769021382040325	-0.30163772212302953	0.0	1.069459326276527	-0.33984448426075153	0.0	0.8380113181582386	-0.37135061244418127	0.0	0.7801267429562858	-0.37059373764919556	0.0	0.8084557442237296	-0.3459136896891027	0.0	0.846646529234014	-0.3598520804263989	0.0	0.9112115543500064	-0.3338340414794666	0.0	0.9309412131692972	-0.27739105343533604	0.0	0.843637338028552	-0.37731070738188305	0.0	0.8910284634857476	-0.35351409913061055	0.0	0.9205419948584492	-0.30968497961298963	0.0
49	1.6436058700209641	0.967137907329663	-0.37740469172149277	0.0	0.9709769742744622	-0.3736897384856113	0.0	0.9476009784656891	-0.2890310586739035	0.0	1.036224538934545	-0.28772910755261716	0.0	1.0429958052833448	-0.24944649714742287	0.0	1.0492179447986734	-0.25561007544984843	0.0	1.0461610039471414	-0.2918994157215438	0.0	0.9602997712661846	-0.378535129725035	0.0	0.9408518293212053	-0.2998420170801291	0.0	1.0323195289874139	-0.28571112435500257	0.0	1.0492967852801363	-0.2559431860747916	0.0	1.0453829502219243	-0.25376313197436284	0.0	1.0471047704590417	-0.2880324352123998	0.0	0.8476177438807823	-0.3891489373056423	0.0	0.7935563470239647	-0.403477745804554	0.0	0.8143032708129605	-0.3722734318921052	0.0	0.857708801651835	-0.3730847849088673	0.0	0.9173212975242079	-0.33226116443123543	0.0	0.9323259934653046	-0.280047152579997	0.0	0.8554886603236	-0.3929262608293909	0.0	0.8982575503889942	-0.3646176541163069	0.0	0.9289239858420137	-0.3171788816933435	0.0
